<svg width="20" height="20" viewBox="0 0 20 20" fill="none" xmlns="http://www.w3.org/2000/svg">
<path d="M4.66629 7.83325C4.58163 7.83325 4.50663 7.89059 4.48463 7.97225L0.666293 17.4999V17.8333C0.666293 18.0779 0.650627 18.1666 0.854627 18.1666H15.7743C16.1596 18.1666 16.499 17.9069 16.591 17.5623L19.9996 8.16659C19.9996 8.16659 19.9996 7.95825 19.9996 7.83325H4.66629Z" fill="#385163"/>
<path d="M4.24367 7.16659H17.6667H18V5.07725C18 4.57492 17.5913 4.16659 17.0893 4.16659H8.83833L7.17167 1.83325H0.910667C0.408667 1.83325 0 2.24192 0 2.74392V16.6759L3.42733 7.77025C3.519 7.42625 3.85833 7.16659 4.24367 7.16659Z" fill="#385163"/>
</svg>
