<svg width="20" height="20" viewBox="0 0 20 20" fill="none" xmlns="http://www.w3.org/2000/svg">
<path d="M18.2141 17.8572C18.6636 17.8572 19.0532 17.7087 19.3843 17.4156L13.718 11.7491C13.5821 11.8464 13.4503 11.9411 13.3258 12.0311C12.9018 12.3435 12.5576 12.5873 12.2933 12.762C12.0291 12.9371 11.6775 13.1156 11.2387 13.2978C10.7995 13.4802 10.3904 13.5711 10.0109 13.5711H9.99978H9.98867C9.60911 13.5711 9.19999 13.4803 8.76088 13.2978C8.32177 13.1156 7.9702 12.9371 7.70622 12.762C7.44198 12.5873 7.09801 12.3436 6.67375 12.0311C6.55552 11.9444 6.4244 11.8493 6.28264 11.7476L0.615234 17.4156C0.946356 17.7087 1.33616 17.8572 1.78569 17.8572H18.2141Z" fill="#385163"/>
<path d="M1.12735 8.18082C0.703347 7.89814 0.327345 7.57439 0 7.20972V15.8309L4.99427 10.8366C3.99513 10.1391 2.7078 9.25483 1.12735 8.18082Z" fill="#385163"/>
<path d="M18.8841 8.18082C17.3639 9.20974 16.0718 10.0955 15.0078 10.8386L20.0001 15.8311V7.20972C19.68 7.56705 19.3081 7.89059 18.8841 8.18082Z" fill="#385163"/>
<path d="M18.2139 2.14282H1.7856C1.21247 2.14282 0.77183 2.33636 0.463149 2.72304C0.154213 3.1099 0 3.59371 0 4.17392C0 4.64259 0.20465 5.1504 0.613767 5.6975C1.02289 6.24438 1.45822 6.67395 1.91955 6.9864C2.17246 7.16509 2.93514 7.69531 4.20759 8.57687C4.89449 9.05287 5.49184 9.46776 6.00517 9.82579C6.44272 10.1307 6.82007 10.3947 7.13162 10.6138C7.16739 10.6389 7.22363 10.6791 7.29829 10.7325C7.37872 10.7902 7.4805 10.8636 7.60606 10.9542C7.84786 11.1291 8.04873 11.2705 8.20872 11.3785C8.36849 11.4865 8.56206 11.6071 8.78915 11.7411C9.01606 11.8749 9.23008 11.9756 9.43095 12.0425C9.63186 12.1094 9.81784 12.1429 9.98894 12.1429H10.0001H10.0112C10.1822 12.1429 10.3682 12.1094 10.5692 12.0425C10.77 11.9756 10.9839 11.8752 11.211 11.7411C11.4378 11.6071 11.6312 11.4862 11.7914 11.3785C11.9514 11.2705 12.1523 11.1291 12.3941 10.9542C12.5194 10.8636 12.6212 10.7902 12.7016 10.7327C12.7763 10.6791 12.8325 10.6391 12.8685 10.6138C13.1112 10.4449 13.4894 10.182 13.9979 9.82888C14.9232 9.18599 16.2859 8.23976 18.0917 6.9864C18.6348 6.60706 19.0886 6.14929 19.4533 5.61373C19.8173 5.07818 19.9998 4.51641 19.9998 3.9286C19.9998 3.4375 19.8228 3.01727 19.4697 2.66726C19.1162 2.3177 18.6976 2.14282 18.2139 2.14282Z" fill="#385163"/>
</svg>
