<svg width="16" height="20" viewBox="0 0 16 20" fill="none" xmlns="http://www.w3.org/2000/svg">
<g clip-path="url(#clip0)">
<path d="M11.9548 9.1303C11.8738 8.90999 11.6958 8.76968 11.4998 8.76968H9.49982V0.769682C9.49982 0.429989 9.27582 0.154297 8.99982 0.154297H6.99982C6.72382 0.154297 6.49982 0.429989 6.49982 0.769682V8.76968H4.49982C4.30382 8.76968 4.12582 8.91122 4.04482 9.1303C3.96282 9.35061 3.99482 9.60784 4.12382 9.78999L7.62382 14.7131C7.71882 14.8472 7.85582 14.9235 7.99982 14.9235C8.14382 14.9235 8.28082 14.846 8.37582 14.7131L11.8758 9.78999C12.0058 9.60907 12.0358 9.35061 11.9548 9.1303Z" fill="#38AAF6"/>
<path d="M13.5 13.6927V17.3851H2.5V13.6927H0.5V18.6158C0.5 19.2964 0.948 19.8466 1.5 19.8466H14.5C15.053 19.8466 15.5 19.2964 15.5 18.6158V13.6927H13.5Z" fill="#38AAF6"/>
</g>
<defs>
<clipPath id="clip0">
<rect y="0.154297" width="16" height="19.6923" fill="white"/>
</clipPath>
</defs>
</svg>
