<svg width="39" height="39" viewBox="0 0 39 39" fill="none" xmlns="http://www.w3.org/2000/svg">
<g clip-path="url(#clip0)">
<path d="M-6.16727e-07 12.7613L-2.76146e-08 26.2386C-1.23603e-08 26.5876 0.282855 26.8704 0.631749 26.8704L3.32721 26.8704C4.04716 26.8704 4.63283 26.2847 4.63283 25.5647L4.63283 24.1749L6.06479 24.1749L6.06479 24.8909C6.06479 25.2399 6.34765 25.5226 6.69654 25.5226L10.0659 25.5226C10.0943 25.5226 10.1221 25.5201 10.1497 25.5165C10.156 25.5156 10.1622 25.5146 10.1686 25.5136C10.1953 25.5092 10.2217 25.5036 10.2473 25.4959C10.248 25.4958 10.2487 25.4956 10.2494 25.4953C10.2768 25.487 10.3032 25.4766 10.3289 25.4648C10.3336 25.4626 10.3382 25.4603 10.3428 25.458C10.3676 25.4459 10.3918 25.4326 10.4146 25.4175C10.4152 25.4172 10.4158 25.4169 10.4163 25.4166L10.4175 25.4157C10.4185 25.4151 10.4193 25.4146 10.4202 25.414L14.4595 22.721C14.6352 22.6039 14.7408 22.4067 14.7408 22.1954L14.7408 21.4794L38.3683 21.4794C38.6076 21.4794 38.8263 21.3442 38.9333 21.1302C38.978 21.0407 39 20.944 39 20.8477C39 20.7134 38.9573 20.58 38.8736 20.4685L36.8521 17.7731C36.7327 17.614 36.5455 17.5204 36.3467 17.5204L14.7408 17.5204L14.7408 16.8043C14.7408 16.5931 14.6353 16.3958 14.4595 16.2787L10.4202 13.5859C10.4194 13.5853 10.4185 13.5848 10.4175 13.5842L10.4163 13.5833C10.4158 13.583 10.4151 13.5827 10.4146 13.5824C10.3918 13.5672 10.3676 13.5539 10.3427 13.5418C10.3381 13.5395 10.3336 13.5372 10.3289 13.5351C10.3032 13.5233 10.2767 13.5128 10.2493 13.5046C10.2487 13.5044 10.248 13.5042 10.2473 13.5041C10.2217 13.4964 10.1953 13.4907 10.1685 13.4864C10.1622 13.4854 10.156 13.4843 10.1497 13.4835C10.1222 13.4799 10.0943 13.4774 10.0659 13.4774L6.69654 13.4774C6.34765 13.4774 6.06479 13.7601 6.06479 14.1091L6.06479 14.825L4.63283 14.825L4.63283 13.4352C4.63283 12.7152 4.04715 12.1295 3.32721 12.1295L0.631749 12.1295C0.282855 12.1295 -6.31981e-07 12.4123 -6.16727e-07 12.7613ZM25.9228 18.784L26.9968 20.2159L25.2068 20.2159L24.1328 18.784L25.9228 18.784ZM28.5761 20.2159L27.5022 18.784L29.2921 18.784L30.3661 20.2159L28.5761 20.2159ZM22.5535 18.784L23.6274 20.2159L21.8375 20.2159L20.7635 18.784L22.5535 18.784ZM31.9455 20.2159L30.8715 18.784L32.6614 18.784L33.7354 20.2159L31.9455 20.2159ZM19.1841 18.784L20.2581 20.2159L18.4681 20.2159L17.3942 18.784L19.1841 18.784ZM37.1048 20.2159L35.3148 20.2159L34.2408 18.784L36.0308 18.784L37.1048 20.2159ZM15.8148 18.784L16.8888 20.2159L14.7408 20.2159L14.7408 18.784L15.8148 18.784ZM13.4773 17.1425L13.4773 21.8573L10.6976 23.7104L10.6976 15.2895L13.4773 17.1425ZM9.43412 14.7408L9.43412 24.2591L7.32829 24.2591L7.32829 14.7408L9.43412 14.7408ZM6.06479 16.0885L6.06479 22.9114L4.63283 22.9114L4.63283 16.0885L6.06479 16.0885ZM3.32721 13.393C3.35046 13.393 3.36933 13.412 3.36933 13.4352L3.36933 25.5647C3.36933 25.5879 3.35046 25.6069 3.32721 25.6069L1.2635 25.6069L1.2635 13.393L3.32721 13.393Z" fill="#38AAF6"/>
</g>
<defs>
<clipPath id="clip0">
</clipPath>
</defs>
</svg>
