<svg width="18" height="18" viewBox="0 0 18 18" fill="none" xmlns="http://www.w3.org/2000/svg">
<g clip-path="url(#clip0)">
<path d="M9.00022 4.72934L2.5806 10.0216C2.5806 10.0291 2.57872 10.0401 2.57497 10.0551C2.57129 10.0699 2.56934 10.0807 2.56934 10.0884V15.4474C2.56934 15.6409 2.64008 15.8086 2.78152 15.9498C2.92293 16.0911 3.09037 16.1622 3.28391 16.1622H7.57101V11.8748H10.4295V16.1623H14.7165C14.91 16.1623 15.0777 16.0914 15.2189 15.9498C15.3604 15.8087 15.4313 15.6409 15.4313 15.4474V10.0884C15.4313 10.0587 15.4273 10.0362 15.4201 10.0216L9.00022 4.72934Z" fill="#58B3F3"/>
<path d="M17.8759 8.81581L15.4309 6.78382V2.22856C15.4309 2.12443 15.3975 2.03879 15.3303 1.97176C15.2636 1.90481 15.178 1.87134 15.0736 1.87134H12.93C12.8258 1.87134 12.7402 1.90481 12.6731 1.97176C12.6062 2.03879 12.5728 2.12447 12.5728 2.22856V4.40567L9.84862 2.12799C9.61071 1.93445 9.32782 1.83771 9.00028 1.83771C8.67277 1.83771 8.38992 1.93445 8.15177 2.12799L0.124063 8.81581C0.0496463 8.87525 0.00885957 8.95526 0.00127317 9.05576C-0.00627413 9.15618 0.0197308 9.2439 0.0793662 9.31828L0.771567 10.1445C0.831202 10.2114 0.909256 10.2524 1.00604 10.2674C1.0954 10.2749 1.18475 10.2487 1.27411 10.1892L9.00004 3.74695L16.7261 10.1892C16.7857 10.2411 16.8637 10.267 16.9605 10.267H16.9941C17.0907 10.2523 17.1686 10.2111 17.2286 10.1443L17.9208 9.31824C17.9804 9.2437 18.0064 9.15615 17.9987 9.05561C17.9911 8.95538 17.9501 8.87537 17.8759 8.81581Z" fill="#58B3F3"/>
</g>
<defs>
<clipPath id="clip0">
<rect width="18" height="18" fill="white"/>
</clipPath>
</defs>
</svg>
