<svg width="18" height="18" viewBox="0 0 18 18" fill="none" xmlns="http://www.w3.org/2000/svg">
<g clip-path="url(#clip0)">
<path d="M8.99998 4.72949L2.58035 10.0218C2.58035 10.0293 2.57848 10.0403 2.57472 10.0552C2.57105 10.0701 2.56909 10.0809 2.56909 10.0885V15.4476C2.56909 15.6411 2.63983 15.8087 2.78128 15.9499C2.92268 16.0912 3.09013 16.1623 3.28366 16.1623H7.57076V11.875H10.4292V16.1625H14.7163C14.9098 16.1625 15.0775 16.0915 15.2187 15.9499C15.3601 15.8089 15.4311 15.6411 15.4311 15.4476V10.0885C15.4311 10.0588 15.427 10.0364 15.4198 10.0218L8.99998 4.72949Z" fill="#8C9398"/>
<path d="M17.8757 8.816L15.4308 6.78401V2.22875C15.4308 2.12461 15.3973 2.03897 15.3301 1.97194C15.2635 1.905 15.1779 1.87152 15.0735 1.87152H12.9299C12.8257 1.87152 12.7401 1.905 12.673 1.97194C12.6061 2.03897 12.5726 2.12465 12.5726 2.22875V4.40586L9.8485 2.12817C9.61059 1.93464 9.3277 1.83789 9.00015 1.83789C8.67265 1.83789 8.3898 1.93464 8.15165 2.12817L0.123941 8.816C0.0495242 8.87544 0.0087375 8.95544 0.0011511 9.05595C-0.00639621 9.15637 0.0196087 9.24408 0.0792441 9.31846L0.771445 10.1447C0.83108 10.2116 0.909134 10.2526 1.00592 10.2675C1.09528 10.2751 1.18463 10.2489 1.27399 10.1894L8.99992 3.74713L16.7259 10.1894C16.7856 10.2413 16.8636 10.2672 16.9604 10.2672H16.994C17.0906 10.2525 17.1685 10.2113 17.2284 10.1445L17.9207 9.31842C17.9802 9.24389 18.0063 9.15633 17.9986 9.05579C17.9909 8.95556 17.95 8.87555 17.8757 8.816Z" fill="#8C9398"/>
</g>
<defs>
<clipPath id="clip0">
<rect width="18" height="18" fill="white"/>
</clipPath>
</defs>
</svg>
