<svg width="23" height="23" viewBox="0 0 23 23" fill="none" xmlns="http://www.w3.org/2000/svg">
<path d="M11.752 13.864C11.896 13.864 11.992 13.784 11.992 13.64L12.12 8.712V5.8C12.12 5.64 12.04 5.56 11.88 5.56H10.392C10.248 5.56 10.168 5.64 10.168 5.8V8.712L10.296 13.64C10.296 13.784 10.376 13.864 10.536 13.864H11.752ZM12.36 15.944C12.36 15.256 11.832 14.728 11.144 14.728C10.44 14.728 9.928 15.256 9.928 15.944C9.928 16.632 10.44 17.16 11.144 17.16C11.832 17.16 12.36 16.632 12.36 15.944Z" fill="#38AAF6"/>
<circle cx="11.5" cy="11.5" r="11" stroke="#D5D5D5"/>
</svg>
