<svg width="30" height="30" viewBox="0 0 30 30" fill="none" xmlns="http://www.w3.org/2000/svg">
<path d="M22.2983 18.31C25.1284 13.6768 24.5538 7.53373 20.5501 3.52395C15.8557 -1.17042 8.21516 -1.17042 3.52078 3.52395C-1.17359 8.21833 -1.17359 15.8589 3.52078 20.5472C7.52445 24.5508 13.6675 25.1254 18.3068 22.2953L25.1834 29.1719C26.2836 30.2721 28.0746 30.2721 29.1748 29.1719C30.2751 28.0716 30.2751 26.2807 29.1748 25.1804L22.2983 18.31ZM18.0623 18.0655C14.7372 21.3907 9.33374 21.3907 6.01467 18.0655C2.68949 14.7403 2.68949 9.33691 6.01467 6.01784C9.33985 2.69266 14.7433 2.69266 18.0623 6.01784C21.3814 9.33691 21.3814 14.7403 18.0623 18.0655ZM13.4474 10.5105H17.0782V13.2795H13.4474V16.9103H10.6785V13.2795H7.05379V10.5105H10.6846V6.8797H13.4535V10.5105H13.4474Z" fill="#38AAF6"/>
</svg>
