<svg width="30" height="179" viewBox="0 0 30 179" fill="none" xmlns="http://www.w3.org/2000/svg">
<path d="M14.9995 149C9.17494 149 4.43652 153.813 4.43652 159.728V168.272C4.43652 174.187 9.17494 179 14.9995 179C20.8236 179 25.5624 174.202 25.5624 168.305V159.728C25.5624 153.813 20.8236 149 14.9995 149ZM23.5756 168.305C23.5756 173.107 19.7286 177.013 14.9995 177.013C10.2706 177.013 6.42332 173.092 6.42332 168.272V159.728C6.42332 154.908 10.2706 150.987 14.9995 150.987C19.7286 150.987 23.5756 154.908 23.5756 159.728V168.305Z" fill="white"/>
<path d="M14.9992 157.212C14.4505 157.212 14.0058 157.657 14.0058 158.205V161.682C14.0058 162.231 14.4505 162.676 14.9992 162.676C15.5479 162.676 15.9926 162.231 15.9926 161.682V158.205C15.9926 157.657 15.5479 157.212 14.9992 157.212Z" fill="white"/>
<path opacity="0.2" d="M15.48 1C15.48 1 22.474 21.6769 22.4545 35.3745C22.4352 48.9768 15.48 69.5 15.48 69.5C15.48 69.5 10 90.2044 10 103.75C10 117.296 15.48 138 15.48 138" stroke="white" stroke-width="2"/>
</svg>
