<svg width="39" height="15" viewBox="0 0 39 15" fill="none" xmlns="http://www.w3.org/2000/svg">
<path d="M-6.16727e-07 0.76129L-2.76146e-08 14.2386C-1.23603e-08 14.5876 0.282855 14.8704 0.631749 14.8704L3.32721 14.8704C4.04716 14.8704 4.63283 14.2847 4.63283 13.5647L4.63283 12.1749L6.06479 12.1749L6.06479 12.8909C6.06479 13.2399 6.34765 13.5226 6.69654 13.5226L10.0659 13.5226C10.0943 13.5226 10.1221 13.5201 10.1497 13.5165C10.156 13.5156 10.1622 13.5146 10.1686 13.5136C10.1953 13.5092 10.2217 13.5036 10.2473 13.4959C10.248 13.4958 10.2487 13.4956 10.2494 13.4953C10.2768 13.487 10.3032 13.4766 10.3289 13.4648C10.3336 13.4626 10.3382 13.4603 10.3428 13.458C10.3676 13.4459 10.3918 13.4326 10.4146 13.4175C10.4152 13.4172 10.4158 13.4169 10.4163 13.4166L10.4175 13.4157C10.4185 13.4151 10.4193 13.4146 10.4202 13.414L14.4595 10.721C14.6352 10.6039 14.7408 10.4067 14.7408 10.1954L14.7408 9.47943L38.3683 9.47943C38.6076 9.47943 38.8263 9.34424 38.9333 9.1302C38.978 9.04074 39 8.94404 39 8.84768C39 8.71341 38.9573 8.57999 38.8736 8.46855L36.8521 5.77308C36.7327 5.61397 36.5455 5.52038 36.3467 5.52038L14.7408 5.52038L14.7408 4.80432C14.7408 4.59306 14.6353 4.39579 14.4595 4.2787L10.4202 1.58593C10.4194 1.58534 10.4185 1.58475 10.4175 1.58417L10.4163 1.58332C10.4158 1.58299 10.4151 1.58273 10.4146 1.58239C10.3918 1.56723 10.3676 1.55392 10.3427 1.54179C10.3381 1.53952 10.3336 1.53725 10.3289 1.53514C10.3032 1.52335 10.2767 1.51282 10.2493 1.50456C10.2487 1.5044 10.248 1.50423 10.2473 1.50406C10.2217 1.49639 10.1953 1.49075 10.1685 1.48637C10.1622 1.48536 10.156 1.48435 10.1497 1.48351C10.1222 1.47988 10.0943 1.47736 10.0659 1.47736L6.69654 1.47736C6.34765 1.47736 6.06479 1.76013 6.06479 2.10911L6.06479 2.825L4.63283 2.825L4.63283 1.43516C4.63283 0.715215 4.04715 0.12954 3.32721 0.12954L0.631749 0.12954C0.282855 0.12954 -6.31981e-07 0.412312 -6.16727e-07 0.76129ZM25.9228 6.78397L26.9968 8.21593L25.2068 8.21593L24.1328 6.78397L25.9228 6.78397ZM28.5761 8.21593L27.5022 6.78397L29.2921 6.78397L30.3661 8.21593L28.5761 8.21593ZM22.5535 6.78397L23.6274 8.21593L21.8375 8.21593L20.7635 6.78397L22.5535 6.78397ZM31.9455 8.21593L30.8715 6.78397L32.6614 6.78397L33.7354 8.21593L31.9455 8.21593ZM19.1841 6.78397L20.2581 8.21593L18.4681 8.21593L17.3942 6.78397L19.1841 6.78397ZM37.1048 8.21593L35.3148 8.21593L34.2408 6.78397L36.0308 6.78397L37.1048 8.21593ZM15.8148 6.78397L16.8888 8.21593L14.7408 8.21593L14.7408 6.78397L15.8148 6.78397ZM13.4773 5.14251L13.4773 9.8573L10.6976 11.7104L10.6976 3.28947L13.4773 5.14251ZM9.43412 2.74077L9.43412 12.2591L7.32829 12.2591L7.32829 2.74077L9.43412 2.74077ZM6.06479 4.0885L6.06479 10.9114L4.63283 10.9114L4.63283 4.0885L6.06479 4.0885ZM3.32721 1.39304C3.35046 1.39304 3.36933 1.41199 3.36933 1.43516L3.36933 13.5647C3.36933 13.5879 3.35046 13.6069 3.32721 13.6069L1.2635 13.6069L1.2635 1.39304L3.32721 1.39304Z" fill="#38AAF6"/>
</svg>
